<?xml version="1.0" encoding="UTF-8"?>
<svg id="Layer_1" data-name="Layer 1" xmlns="http://www.w3.org/2000/svg" viewBox="0 0 1078.29 288.19">
  <defs>
    <style>
      .cls-1 {
        fill: #ffffdb;
        stroke-width: 0px;
      }
    </style>
  </defs>
  <path class="cls-1" d="m0,283.91V4.28h59.59c41.54,0,74.19,12.46,97.95,37.39,23.76,24.92,35.63,59.07,35.63,102.43s-11.88,77.5-35.63,102.43c-23.76,24.92-56.41,37.39-97.95,37.39H0Zm36.61-32.32h22.98c30.9,0,54.72-9.35,71.46-28.04,16.75-18.69,25.12-45.18,25.12-79.45s-8.37-60.75-25.12-79.45c-16.75-18.69-40.7-28.04-71.85-28.04h-22.59v214.98Z"/>
  <path class="cls-1" d="m219.75,4.28h186.55v32.71h-149.94v86.07h127.35v32.71h-127.35v95.42h149.94v32.71h-186.55V4.28Z"/>
  <path class="cls-1" d="m478.73,63.87c-14.02,20.51-21.03,47.25-21.03,80.23s7.01,59.72,21.03,80.23c14.02,20.51,32.06,30.77,54.13,30.77,15.32,0,28.5-4.93,39.53-14.8,11.04-9.87,18.76-23.76,23.17-41.67l35.05,11.68c-7.53,24.67-19.86,43.81-37,57.44-17.14,13.63-37.39,20.45-60.75,20.45-32.45,0-59.07-13.44-79.84-40.31s-31.16-61.47-31.16-103.79,10.39-76.92,31.16-103.79S500.41,0,532.86,0c23.37,0,43.62,6.82,60.75,20.45,17.14,13.63,29.47,32.78,37,57.44l-35.05,11.68c-4.41-17.92-12.14-31.81-23.17-41.67-11.03-9.87-24.21-14.8-39.53-14.8-22.07,0-40.11,10.26-54.13,30.77Z"/>
  <path class="cls-1" d="m678.32,248.27c-18.82-26.61-28.24-61.34-28.24-104.18s9.41-77.57,28.24-104.18C697.15,13.31,721.75,0,752.12,0s55.04,13.31,74,39.92c18.95,26.61,28.43,61.34,28.43,104.18s-9.48,77.57-28.43,104.18c-18.95,26.61-43.62,39.92-74,39.92s-54.98-13.31-73.8-39.92Zm122.09-23.37c11.94-20.12,17.92-47.06,17.92-80.81s-5.97-60.69-17.92-80.81-28.04-30.18-48.29-30.18-36.28,10.06-48.1,30.18c-11.81,20.12-17.72,47.06-17.72,80.81s5.91,60.69,17.72,80.81c11.81,20.12,27.85,30.18,48.1,30.18s36.35-10.06,48.29-30.18Z"/>
  <path class="cls-1" d="m963.4,132.8L1038.95,4.28h39.33l-96.58,162.01v117.61h-37.39v-117.61L847.34,4.28h40.5l75.55,128.52Z"/>
</svg>